HIERARCHY
ROOT SpineBase
{
  OFFSET 0.000000 0.000000 0.000000
  CHANNELS 6 Xposition Yposition Zposition Zrotation Xrotation Yrotation
  JOINT SpineMid
  {
    OFFSET -0.000000 34.586241 0.000000
    CHANNELS 3 Zrotation Xrotation Yrotation
    JOINT SpineShoulder
    {
      OFFSET 0.324236 25.701874 -1.018970
      CHANNELS 3 Zrotation Xrotation Yrotation
      JOINT Neck
      {
        OFFSET 0.209835 8.479133 -0.706863
        CHANNELS 3 Zrotation Xrotation Yrotation
        JOINT Head
        {
          OFFSET -2.894151 13.686282 3.014378
          CHANNELS 3 Zrotation Xrotation Yrotation
          End Site
          {
            OFFSET 0 0 0
          }
        }
      }
      JOINT ShoulderLeft
      {
        OFFSET -16.962965 -7.183000 -4.273774
        CHANNELS 3 Zrotation Xrotation Yrotation
        JOINT ElbowLeft
        {
          OFFSET -4.916346 -28.958733 6.174933
          CHANNELS 3 Zrotation Xrotation Yrotation
          JOINT WristLeft
          {
            OFFSET -2.697518 -26.508788 10.177110
            CHANNELS 3 Zrotation Xrotation Yrotation
            JOINT HandLeft
            {
              OFFSET -0.041394 -4.453009 -0.036960
              CHANNELS 3 Zrotation Xrotation Yrotation
              JOINT HandTipLeft
              {
                OFFSET 0.786437 -4.502982 -1.859812
                CHANNELS 3 Zrotation Xrotation Yrotation
                End Site
                {
                  OFFSET 0 0 0
                }
              }
              JOINT ThumbLeft
              {
                OFFSET 2.229111 -4.088776 -4.069620
                CHANNELS 3 Zrotation Xrotation Yrotation
                End Site
                {
                  OFFSET 0 0 0
                }
              }
            }
          }
        }
      }
      JOINT ShoulderRight
      {
        OFFSET 15.287137 -5.538231 -5.312843
        CHANNELS 3 Zrotation Xrotation Yrotation
        JOINT ElbowRight
        {
          OFFSET 7.653400 -27.501999 4.050652
          CHANNELS 3 Zrotation Xrotation Yrotation
          JOINT WristRight
          {
            OFFSET 3.948550 -25.754383 7.814160
            CHANNELS 3 Zrotation Xrotation Yrotation
            JOINT HandRight
            {
              OFFSET -0.067349 -6.635808 1.814615
              CHANNELS 3 Zrotation Xrotation Yrotation
              JOINT HandTipRight
              {
                OFFSET -1.323151 -6.021285 -0.543754
                CHANNELS 3 Zrotation Xrotation Yrotation
                End Site
                {
                  OFFSET 0 0 0
                }
              }
              JOINT ThumbRight
              {
                OFFSET -4.044088 1.447100 -0.306066
                CHANNELS 3 Zrotation Xrotation Yrotation
                End Site
                {
                  OFFSET 0 0 0
                }
              }
            }
          }
        }
      }
    }
  }
  JOINT HipLeft
  {
    OFFSET -6.367105 1.613309 -2.958001
    CHANNELS 3 Zrotation Xrotation Yrotation
    JOINT KneeLeft
    {
      OFFSET -0.927877 -37.290155 -3.725067
      CHANNELS 3 Zrotation Xrotation Yrotation
      JOINT AnkleLeft
      {
        OFFSET -0.294356 -28.810666 -2.345876
        CHANNELS 3 Zrotation Xrotation Yrotation
        JOINT FootLeft
        {
          OFFSET 0.564514 -2.861887 -13.816636
          CHANNELS 3 Zrotation Xrotation Yrotation
          End Site
          {
            OFFSET 0 0 0
          }
        }
      }
    }
  }
  JOINT HipRight
  {
    OFFSET 8.151499 2.407025 -3.556026
    CHANNELS 3 Zrotation Xrotation Yrotation
    JOINT KneeRight
    {
      OFFSET 1.383048 -38.000909 -2.311989
      CHANNELS 3 Zrotation Xrotation Yrotation
      JOINT AnkleRight
      {
        OFFSET 0.118110 -27.017701 -2.888241
        CHANNELS 3 Zrotation Xrotation Yrotation
        JOINT FootRight
        {
          OFFSET 0.324378 -2.843857 -13.866005
          CHANNELS 3 Zrotation Xrotation Yrotation
          End Site
          {
            OFFSET 0 0 0
          }
        }
      }
    }
  }
}
MOTION
Frames: 9
Frame Time: 0.033333
-51.937793 67.415144 189.769054 0.000000 0.000000 2.358694 -0.000000 0.000000 -2.358694 -0.000000 0.000000 0.000000 -0.000000 0.000000 0.000000 0.000000 0.000000 0.000000 -0.000000 0.000000 0.000000 -0.000000 0.000000 0.000000 -0.000000 0.000000 0.000000 -0.000000 0.000000 0.000000 0.000000 0.000000 0.000000 0.000000 0.000000 0.000000 -0.000000 0.000000 0.000000 -0.000000 0.000000 0.000000 -0.000000 0.000000 0.000000 -0.000000 0.000000 0.000000 0.000000 0.000000 0.000000 0.000000 0.000000 0.000000 -0.000000 0.000000 -2.358694 -0.000000 0.000000 0.000000 -0.000000 0.000000 0.000000 0.000000 0.000000 0.000000 -0.000000 0.000000 -2.358694 -0.000000 0.000000 0.000000 -0.000000 0.000000 0.000000 0.000000 0.000000 0.000000
-51.738199 67.408172 189.827135 0.061257 0.077647 2.507621 -0.064596 -0.074893 -2.507705 -0.000000 0.000000 0.000000 -0.000000 0.000000 0.000000 0.000000 0.000000 0.000000 -0.000000 0.000000 0.000000 -0.000000 0.000000 0.000000 3.412982 -2.596538 0.073209 -5.255717 0.193528 0.474079 0.000000 0.000000 0.000000 0.000000 0.000000 0.000000 -0.000000 0.000000 0.000000 -0.000000 0.000000 0.000000 -2.669785 -2.763496 -0.761349 4.324615 2.477155 0.476463 0.000000 0.000000 0.000000 0.000000 0.000000 0.000000 -0.064596 -0.074893 -2.507705 -0.000000 0.000000 0.000000 -0.000000 0.000000 0.000000 0.000000 0.000000 0.000000 -0.064596 -0.074893 -2.507705 -0.000000 0.000000 0.000000 -0.000000 0.000000 0.000000 0.000000 0.000000 0.000000
-51.551384 67.404917 189.889086 0.118340 0.140777 2.640034 -0.124699 -0.135177 -2.640326 -0.000000 0.000000 0.000000 -0.000000 0.000000 0.000000 0.000000 0.000000 0.000000 -0.000000 0.000000 0.000000 -0.000000 0.000000 0.000000 5.599697 -3.922841 0.182023 -9.608059 -1.212327 1.088266 0.000000 0.000000 0.000000 0.000000 0.000000 0.000000 -0.000000 0.000000 0.000000 -1.173116 -0.772747 -0.482103 -3.468236 -3.963634 -0.878334 7.677428 4.214787 0.640748 0.000000 0.000000 0.000000 0.000000 0.000000 0.000000 -0.124699 -0.135177 -2.640326 -0.000000 0.000000 0.000000 -0.000000 0.000000 0.000000 0.000000 0.000000 0.000000 -0.124699 -0.135177 -2.640326 -0.000000 0.000000 0.000000 -0.000000 0.000000 0.000000 0.000000 0.000000 0.000000
-51.377349 67.405379 189.954904 0.171239 0.189367 2.756044 -0.180147 -0.180913 -2.756611 -0.000000 0.000000 0.000000 0.631215 -0.550566 -0.252391 0.000000 0.000000 0.000000 -0.000000 0.000000 0.000000 -0.000000 0.000000 0.000000 7.041641 -4.409687 0.254168 -13.492777 -3.650413 1.671228 0.000000 0.000000 0.000000 0.000000 0.000000 0.000000 -0.000000 0.000000 0.000000 -1.814262 -1.271468 -0.764860 -4.315041 -4.838800 -1.072229 10.326099 5.383689 0.659675 0.000000 0.000000 0.000000 0.000000 0.000000 0.000000 -0.180147 -0.180913 -2.756611 -0.000000 0.000000 0.000000 -0.000000 0.000000 0.000000 0.000000 0.000000 0.000000 -0.180147 -0.180913 -2.756611 -0.000000 0.000000 0.000000 -0.000000 0.000000 0.000000 0.000000 0.000000 0.000000
-51.216093 67.409558 190.024590 0.219946 0.223393 2.855766 -0.230804 -0.212156 -2.856622 -0.000000 0.000000 0.000000 0.754626 -0.669109 -0.303262 0.000000 0.000000 0.000000 -0.000000 0.000000 0.000000 -0.000000 0.000000 0.000000 7.977528 -4.241171 0.269249 -17.010130 -6.624839 2.112772 0.000000 0.000000 0.000000 0.000000 0.000000 0.000000 -0.000000 0.000000 0.000000 -2.475297 -1.833495 -1.070209 -4.765254 -5.182688 -1.120394 12.436247 6.087093 0.624077 0.000000 0.000000 0.000000 0.000000 0.000000 0.000000 -1.061940 0.183759 -2.780779 0.849376 -0.355107 -0.073417 -0.000000 0.000000 0.000000 0.000000 0.000000 0.000000 -1.091610 0.112935 -2.793810 0.875634 -0.282736 -0.061397 -0.000000 0.000000 0.000000 0.000000 0.000000 0.000000
-51.067616 67.417454 190.098144 0.264454 0.242835 2.939318 -0.276560 -0.228952 -2.940431 -0.000000 0.000000 0.000000 0.835139 -0.755292 -0.338124 0.000000 0.000000 0.000000 -0.000000 0.000000 0.000000 -0.000000 0.000000 0.000000 8.527091 -3.463279 0.219772 -20.009179 -9.587516 2.340329 0.000000 0.000000 0.000000 0.000000 0.000000 0.000000 -0.000000 0.000000 0.000000 -3.141943 -2.446092 -1.392482 -4.905778 -5.064516 -1.040610 14.110059 6.373167 0.588338 0.000000 0.000000 0.000000 0.000000 0.000000 0.000000 -1.228175 0.253705 -2.853644 0.974485 -0.434649 -0.082885 -0.000000 0.000000 0.000000 0.000000 0.000000 0.000000 -1.300865 0.184789 -2.864159 1.043713 -0.362015 -0.073370 -0.000000 0.000000 0.000000 0.000000 0.000000 0.000000
-50.911529 67.434262 190.180334 0.323131 0.247688 3.007953 -0.335685 -0.230387 -3.009327 -0.000000 0.000000 0.000000 0.864575 -0.788639 -0.351216 0.000000 0.000000 0.000000 -0.000000 0.000000 0.000000 0.352559 0.852384 0.046137 8.997416 -1.904195 0.106076 -25.454955 -13.170589 2.872365 0.000000 0.000000 0.000000 0.000000 0.000000 0.000000 -0.000000 0.000000 0.000000 -4.166147 -3.276116 -1.880223 -4.003378 -4.001248 -0.560916 15.311032 6.144016 0.438348 0.000000 0.000000 0.000000 0.000000 0.000000 0.000000 -1.389424 0.344986 -2.913121 1.081656 -0.521020 -0.090234 -0.169088 0.058533 0.826144 0.000000 0.000000 0.000000 -1.533909 0.277763 -2.918212 1.222569 -0.446431 -0.085856 -0.168401 0.065331 0.826460 0.000000 0.000000 0.000000
-50.793185 67.452199 190.261477 0.354974 0.232990 3.043471 -0.366846 -0.213810 -3.044878 -0.000000 0.000000 0.000000 0.843341 -0.763889 -0.341632 0.000000 0.000000 0.000000 -0.000000 0.000000 0.000000 0.471265 0.969596 0.078559 8.891633 0.580395 -0.147179 -28.478421 -16.208554 2.531047 0.000000 0.000000 0.000000 0.000000 0.000000 0.000000 -0.000000 0.000000 0.000000 -4.839220 -4.033077 -2.248480 -3.772611 -2.689943 -0.262529 16.468571 5.556179 0.513577 0.000000 0.000000 0.000000 0.000000 0.000000 0.000000 -1.456312 0.428647 -2.945342 1.121090 -0.585551 -0.091764 -0.214055 0.047185 1.041100 0.000000 0.000000 0.000000 -1.673080 0.384739 -2.942388 1.335287 -0.530612 -0.094358 -0.212585 0.053630 1.040554 0.000000 0.000000 0.000000
-50.687001 67.465853 190.352866 0.380960 0.203761 3.066062 -0.391316 -0.183088 -3.067365 -0.000000 0.000000 0.000000 0.801760 -0.757928 -0.331554 0.000000 0.000000 0.000000 -0.000000 0.000000 0.000000 0.565061 0.911459 0.120118 7.747852 2.665275 -0.359357 -23.834540 -13.261365 2.386852 0.000000 0.000000 0.000000 0.000000 0.000000 0.000000 -0.000000 0.000000 0.000000 -5.124490 -4.621024 -2.458017 -3.905844 -1.359161 -0.082481 15.913997 4.098865 1.149044 0.000000 0.000000 0.000000 0.000000 0.000000 0.000000 -1.497485 0.522029 -2.966106 1.141242 -0.646836 -0.091544 -0.252539 0.033937 1.224714 0.000000 0.000000 0.000000 -1.786015 0.521312 -2.953319 1.429220 -0.631455 -0.102053 -0.250199 0.040248 1.222757 0.000000 0.000000 0.000000
